<!-- Thanks to Georg Ringer: https://github.com/georgringer/news/blob/master/Resources/Public/Icons/Extension.svg -->
<svg xmlns="http://www.w3.org/2000/svg" width="1200" height="1200" preserveAspectRatio="xMidYMid">
    <path fill="#919de1" fill-rule="evenodd" d="M600 587.503H382.498v-217.5h217.5v217.5zm-290.002 145v72.499H672.5v-72.498H309.998zm0-435v362.499H672.5v-362.5H309.998zm435.001 435v72.499H1035v-72.498H745zm0-145v72.499H1035v-72.5H745zm0-145.001v72.5H1035v-72.5H745zm0-145v72.5H1035v-72.5H745zM154.238 866.74c-7.176 7.177-15.673 10.762-25.488 10.762-9.824 0-18.318-3.585-25.488-10.762-7.179-7.17-10.761-15.665-10.761-25.489v-543.75H165v543.752c0 9.822-3.592 18.318-10.762 25.487zm942.5 0c-7.18 7.177-15.674 10.762-25.488 10.762H231.269c4.152-11.7 6.231-23.788 6.231-36.252V225.004h870v616.249c0 9.825-3.594 18.32-10.762 25.49zM165 152.504v72.5H20V841.25c0 30.213 10.567 55.887 31.72 77.03C72.862 939.435 98.536 950 128.75 950h942.5c30.204 0 55.879-10.567 77.03-31.718 21.144-21.144 31.72-46.817 31.72-77.032V152.5H165z"/>
    <!-- Thanks to fontawesome: https://fontawesome.com/icons/hand-pointer?style=solid -->
    <path transform="translate(250,600) scale(1.5) rotate(-30)" fill="#e00" d="M448 240v96c0 3.084-.356 6.159-1.063 9.162l-32 136C410.686 499.23 394.562 512 376 512H168a40.004 40.004 0 0 1-32.35-16.473l-127.997-176c-12.993-17.866-9.043-42.883 8.822-55.876 17.867-12.994 42.884-9.043 55.877 8.823L104 315.992V40c0-22.091 17.908-40 40-40s40 17.909 40 40v200h8v-40c0-22.091 17.908-40 40-40s40 17.909 40 40v40h8v-24c0-22.091 17.908-40 40-40s40 17.909 40 40v24h8c0-22.091 17.908-40 40-40s40 17.909 40 40zm-256 80h-8v96h8v-96zm88 0h-8v96h8v-96zm88 0h-8v96h8v-96z" class=""></path>
</svg>
